<svg xmlns="http://www.w3.org/2000/svg" xmlns:svg="http://www.w3.org/2000/svg" viewBox="0 0 47.999997 60" x="0px" y="0px">
  <path
  style="color:#000000;clip-rule:nonzero;display:inline;overflow:visible;visibility:visible;opacity:1;isolation:auto;mix-blend-mode:normal;color-interpolation:sRGB;color-interpolation-filters:linearRGB;solid-color:#000000;solid-opacity:1;fill:#000000;fill-opacity:1;fill-rule:evenodd;stroke:none;stroke-width:2;stroke-linecap:round;stroke-linejoin:round;stroke-miterlimit:4;stroke-dasharray:none;stroke-dashoffset:0;stroke-opacity:1;marker:none;color-rendering:auto;image-rendering:auto;shape-rendering:auto;text-rendering:auto;enable-background:accumulate" d="m 29.001996,0 c -2.7527,0 -5.002,2.2495267 -5.002,5.0035024 l 0,13.9969096 c 0,2.753986 2.2493,5.001553 5.002,5.001543 l 13.998,0 c 2.7528,10e-6 5.002,-2.247557 5.002,-5.001543 l 0,-13.9969096 C 48.001996,2.2495267 45.752796,0 42.999996,0 Z m 0,2.0017969 13.998,0 c 1.6793,0 3.0026,1.3216223 3.002,3.0017055 l 0,13.9969096 c 0,1.680073 -1.3226,3.001896 -3.002,3.001706 l -14,-0.002 c -1.6794,1.9e-4 -3,-1.319683 -3,-2.999756 l 0,-13.9968596 c -5e-4,-1.6800832 1.3228,-3.0017055 3.002,-3.0017055 z m -12.002,3.0017055 c -0.5523,0 -1,0.4476835 -1,0.9999185 l 0,5.9995111 c 0,0.552235 0.4477,0.999919 1,0.999919 0.5523,0 1,-0.447684 1,-0.999919 l 0,-5.9995111 c 0,-0.552235 -0.4477,-0.9999185 -1,-0.9999185 z M 7.0136961,6.0170898 c -0.2559,0 -0.5118,0.097692 -0.7071,0.2929461 -0.3905,0.3904882 -0.3905,1.0234567 0,1.4139449 l 3.9999999,3.9996742 c 0.3906,0.390488 1.0236,0.390488 1.4141,0 0.3905,-0.390488 0.3905,-1.023457 0,-1.413945 L 7.7206958,6.3100359 c -0.1953,-0.195244 -0.4511,-0.2929461 -0.7069997,-0.2929461 z M 35.999996,10.003095 c -1.10457,-2e-6 -2.000002,0.895357 -2,1.999837 -2e-6,1.10448 0.89543,1.999839 2,1.999837 1.10457,2e-6 2.000002,-0.895357 2,-1.999837 2e-6,-1.10448 -0.89543,-1.999839 -2,-1.999837 z M 5.9999961,16.002606 c -0.5523,0 -1,0.447684 -1,0.999919 0,0.552235 0.4477,0.999919 1,0.999919 l 5.9999999,0 c 0.5523,0 1,-0.447684 1,-0.999919 0,-0.552235 -0.4477,-0.999919 -1,-0.999919 z m -0.9961,7.993489 c -2.7528,0 -5.0019,2.251477 -5.0019,5.005453 l 0,13.996909 c 0,2.753976 2.2491,5.001543 5.0019,5.001543 l 13.9980999,0 c 2.7528,0 5.0019,-2.247567 5.0019,-5.001543 l 0,-13.996909 c 0,-2.753976 -2.2491,-5.005453 -5.0019,-5.005453 z m 0,2.003747 13.9980999,0 c 1.6793,0 3.0024,1.321542 3.0019,3.001706 l 0,13.996909 c 0,1.680064 -1.3225,3.001806 -3.0019,3.001706 l -13.9999999,0 c -1.6794,10e-5 -3,-1.319693 -3,-2.999756 l 0,-13.99691 c -5e-4,-1.680163 1.3226,-3.001705 3.0019,-3.001705 l 0,-0.002 z m 1.9981,1.995928 c -1.1045702,-2e-6 -2.0000017,0.895357 -2,1.999837 -1.7e-6,1.10448 0.8954298,1.999839 2,1.999837 1.1045702,2e-6 2.0000016,-0.895357 1.9999999,-1.999837 1.7e-6,-1.10448 -0.8954297,-1.999839 -1.9999999,-1.999837 z m 9.9999999,0 c -1.10457,-2e-6 -2.000002,0.895357 -2,1.999837 -2e-6,1.10448 0.89543,1.999839 2,1.999837 1.10457,2e-6 2.000002,-0.895357 2,-1.999837 2e-6,-1.10448 -0.89543,-1.999839 -2,-1.999837 z m 18.998,2.005778 c -0.5457,0.008 -1,0.452483 -1,0.999918 0,0.552235 0.4477,0.999919 1,0.999919 l 6,0 c 0.5523,0 1,-0.447684 1,-0.999919 0,-0.552235 -0.4477,-0.999918 -1,-0.999918 z M 7.0019961,33.991371 c -1.1045702,-2e-6 -2.0000017,0.895357 -2,1.999837 -1.7e-6,1.10448 0.8954298,1.999839 2,1.999837 1.1045702,2e-6 2.0000016,-0.895357 1.9999999,-1.999837 1.7e-6,-1.10448 -0.8954297,-1.999839 -1.9999999,-1.999837 z m 9.9999999,0 c -1.10457,-2e-6 -2.000002,0.895357 -2,1.999837 -2e-6,1.10448 0.89543,1.999839 2,1.999837 1.10457,2e-6 2.000002,-0.895357 2,-1.999837 2e-6,-1.10448 -0.89543,-1.999839 -2,-1.999837 z m 13.998,1.0098 c -0.5475,0 -0.9923,0.454313 -1,0.999919 l 0,5.999511 c 0,0.552235 0.4477,0.999919 1,0.999919 0.5523,0 1,-0.447684 1,-0.999919 l 0,-5.999511 c 0,-0.552235 -0.4477,-0.999919 -1,-0.999919 z m 6.0137,1.013588 c -0.2559,0 -0.5118,0.09769 -0.7071,0.292946 -0.3857,0.385698 -0.3872,1.006818 -0.012,1.398326 l 4,4.001624 c 0.3905,0.390488 1.0373,0.403927 1.4278,0.0137 0.3905,-0.390488 0.3779,-1.037126 -0.014,-1.427614 l -4,-3.997724 c -0.1934,-0.185745 -0.4457,-0.281227 -0.6953,-0.281227 z M 7.0019961,39.987013 c -1.1045702,-2e-6 -2.0000017,0.895357 -2,1.999837 -1.7e-6,1.10448 0.8954298,1.999839 2,1.999837 1.1045702,2e-6 2.0000016,-0.895357 1.9999999,-1.999837 1.7e-6,-1.10448 -0.8954297,-1.999839 -1.9999999,-1.999837 z m 9.9999999,0 c -1.10457,-2e-6 -2.000002,0.895357 -2,1.999837 -2e-6,1.10448 0.89543,1.999839 2,1.999837 1.10457,2e-6 2.000002,-0.895357 2,-1.999837 2e-6,-1.10448 -0.89543,-1.999839 -2,-1.999837 z"
    />
</svg>
