<svg xmlns="http://www.w3.org/2000/svg" xmlns:svg="http://www.w3.org/2000/svg" x="0px" y="0px" viewBox="0 0 100 125">
  <g transform="translate(0,-952.36218)">
    <path style="text-indent:0;text-transform:none;direction:ltr;block-progression:tb;baseline-shift:baseline;color:#000000;enable-background:accumulate;" d="m 49.700876,958.39003 c -0.23988,0.0305 -0.47405,0.10505 -0.6875,0.21875 l -36.9375,19.25 c -0.64201,0.34072 -1.06775,1.05445 -1.0625,1.78125 l 0,0.59375 c -0.0463,0.24045 -0.042,0.47766 0,0.71875 l 0,20.24997 0,21.25 c 0,1.4327 0.64212,1.8407 1.4375,2.3125 12.13743,7.1081 24.28786,14.194 36.4375,21.2812 0.83246,0.4254 1.65973,0.3312 2.125,0.062 12.21374,-7.0979 24.40311,-14.2375 36.59375,-21.375 1.17234,-0.6914 1.3666,-1.3601 1.40625,-2.2187 l 0,-21.3125 0,-20.43747 c 0.009,-0.10796 0.008,-0.20454 0,-0.3125 l 0,-0.8125 c -7.1e-4,-0.73311 -0.44022,-1.44899 -1.09375,-1.78125 l -37.03125,-19.25 c -0.29781,-0.1524 -0.63433,-0.22839 -0.96875,-0.21875 -0.0728,-0.004 -0.1459,-0.004 -0.21875,0 z m 0.25,4.25 33.8125,17.5625 -33.78125,19.68748 -33.71875,-19.68748 33.6875,-17.5625 z m -34.9375,21.46875 32.96875,19.25002 0,37.5312 c -10.97443,-6.4432 -21.97013,-12.816 -32.96875,-19.2188 l 0,-20.4687 0,-17.09372 z m 60,14.62503 c 3.54579,0 6.46875,2.93879 6.46875,6.53119 0,3.57 -2.90156,6.5312 -6.46875,6.5312 -3.58877,0 -6.5,-2.9822 -6.5,-6.5312 0,-3.5717 2.93228,-6.53119 6.5,-6.53119 z m -12.15625,16.21869 c 3.56769,0 6.46875,2.9595 6.46875,6.5312 0,3.5491 -2.88002,6.5313 -6.46875,6.5313 -3.56719,0 -6.5,-2.9613 -6.5,-6.5313 0,-3.5923 2.95421,-6.5312 6.5,-6.5312 z" fill="#000000" fill-opacity="1" fill-rule="evenodd" stroke="none" marker="none" visibility="visible" display="inline" overflow="visible"
      />
    <path style="text-indent:0;text-transform:none;direction:ltr;block-progression:tb;baseline-shift:baseline;color:#000000;enable-background:accumulate;" d="m 38.248112,1018.7446 c -0.71318,0.021 -1.425239,0.2095 -2.07062,0.5791 a 2.0001999,2.0001999 0 0 0 -0.06976,0.041 c -2.028139,1.2722 -2.720806,4.0037 -1.474901,6.1022 a 2.0001999,2.0001999 0 0 0 0.0155,0.025 c 1.251071,2.037 4.002155,2.7578 6.092284,1.4904 a 2.0001999,2.0001999 0 0 0 0.02658,-0.015 c 2.019685,-1.2669 2.734087,-3.9783 1.473803,-6.0624 l 0.0011,0 c -0.0018,0 -0.0038,-0.01 -0.0056,-0.01 -0.0035,-0.01 -0.0063,-0.012 -0.01,-0.018 l -0.0011,0 c -0.857693,-1.4219 -2.417953,-2.1802 -3.977362,-2.1348 z" fill="#000000" fill-opacity="1" fill-rule="evenodd" stroke="none" marker="none" visibility="visible" display="inline" overflow="visible"
      />
    <path style="text-indent:0;text-transform:none;direction:ltr;block-progression:tb;baseline-shift:baseline;color:#000000;enable-background:accumulate;" d="m 31.896734,1008.0327 c -0.713179,0.021 -1.426348,0.2096 -2.071729,0.5792 a 2.0001999,2.0001999 0 0 0 -0.06865,0.041 c -2.033937,1.2759 -2.733963,3.9627 -1.498157,6.058 l -0.0022,0 c 0.0078,0.014 0.01754,0.026 0.02547,0.04 0.0057,0.01 0.0097,0.019 0.0155,0.029 l 0.0022,0 c 1.224662,2.0914 3.96794,2.7414 6.00701,1.5148 l 0.0011,0 c 0.01127,-0.01 0.02093,-0.014 0.03211,-0.021 0.01191,-0.01 0.02468,-0.012 0.03654,-0.02 l -0.0011,0 c 2.107587,-1.2584 2.719381,-3.9848 1.525836,-6.0424 a 2.0001999,2.0001999 0 0 0 -0.01,-0.018 c -0.854195,-1.439 -2.424901,-2.2061 -3.993895,-2.1604 z" fill="#000000" fill-opacity="1" fill-rule="evenodd" stroke="none" marker="none" visibility="visible" display="inline" overflow="visible"
      />
    <path style="text-indent:0;text-transform:none;direction:ltr;block-progression:tb;baseline-shift:baseline;color:#000000;enable-background:accumulate;" d="m 25.49553,997.32651 c -0.697737,0.034 -1.392272,0.2375 -2.020794,0.6156 l -0.0011,0 c -0.01127,0.01 -0.02092,0.014 -0.03211,0.021 -0.01191,0.01 -0.02468,0.013 -0.03654,0.02 l 0.0011,0 c -2.107587,1.2584 -2.719385,3.98479 -1.525837,6.04239 a 2.0001999,2.0001999 0 0 0 0.01,0.018 c 1.242577,2.0929 3.999369,2.7639 6.064589,1.5812 a 2.0001999,2.0001999 0 0 0 0.06976,-0.041 c 2.034085,-1.2759 2.733222,-3.9626 1.497047,-6.05789 l 0.0022,-10e-4 c -0.0054,-0.01 -0.01222,-0.018 -0.01772,-0.028 -0.0081,-0.014 -0.01391,-0.028 -0.02215,-0.041 l -0.0022,0 c -0.847116,-1.447 -2.420192,-2.2072 -3.98622,-2.1304 z" fill="#000000" fill-opacity="1" fill-rule="evenodd" stroke="none" marker="none" visibility="visible" display="inline" overflow="visible"
      />
    <path style="text-indent:0;text-transform:none;direction:ltr;block-progression:tb;baseline-shift:baseline;color:#000000;enable-background:accumulate;" d="m 50.536725,973.37703 c -2.798078,0 -5.357267,0.65416 -7.363417,1.85361 -2.006149,1.19941 -3.598671,3.11935 -3.598671,5.50208 0,2.37528 1.598935,4.27785 3.6031,5.46998 2.004166,1.19213 4.56091,1.84695 7.358988,1.84695 2.798079,0 5.355992,-0.65482 7.360122,-1.84695 2.004166,-1.19213 3.603118,-3.09469 3.603118,-5.46998 0,-2.38273 -1.593637,-4.30267 -3.599787,-5.50208 -2.00615,-1.19945 -4.565374,-1.85361 -7.363453,-1.85361 z" fill="#000000" fill-opacity="1" fill-rule="evenodd" stroke="none" marker="none" visibility="visible" display="inline" overflow="visible"
      />
  </g>
</svg>
