<?xml version="1.0" standalone="no"?>
<!DOCTYPE svg PUBLIC "-//W3C//DTD SVG 20010904//EN"
 "http://www.w3.org/TR/2001/REC-SVG-20010904/DTD/svg10.dtd">
<svg version="1.0" xmlns="http://www.w3.org/2000/svg"
 width="640.000000pt" height="640.000000pt" viewBox="0 0 640.000000 640.000000"
 preserveAspectRatio="xMidYMid meet">
<metadata>
Created by potrace 1.11, written by Peter Selinger 2001-2013
</metadata>
<g transform="translate(0.000000,640.000000) scale(0.100000,-0.100000)"
fill="#000000" stroke="none">
<path d="M3128 6205 c-2 -2 -17 -6 -33 -9 -34 -6 -181 -64 -210 -82 -11 -7
-23 -13 -28 -13 -9 -1 -29 -9 -262 -109 -99 -42 -183 -76 -187 -74 -5 1 -8 -2
-8 -8 0 -5 -5 -10 -12 -10 -9 0 -804 -334 -963 -405 -16 -7 -59 -25 -95 -40
-65 -26 -82 -34 -173 -75 -88 -39 -94 -121 -12 -159 56 -27 229 -101 245 -106
3 -1 23 -9 45 -19 22 -10 78 -34 125 -53 47 -19 103 -44 125 -53 22 -10 101
-44 175 -75 165 -69 195 -82 240 -103 19 -8 40 -16 45 -18 6 -1 42 -16 80 -34
84 -37 86 -38 200 -85 50 -21 96 -42 103 -47 6 -6 12 -8 12 -5 0 3 30 -8 68
-24 104 -47 121 -54 217 -94 50 -21 119 -50 155 -65 144 -62 258 -69 376 -25
38 15 79 29 92 32 12 3 22 9 22 14 0 5 6 9 14 9 7 0 48 16 90 35 43 19 84 35
92 35 7 0 14 5 14 10 0 6 6 10 14 10 7 0 35 10 62 21 71 31 136 59 159 68 23
9 50 21 117 51 47 20 98 42 108 45 3 1 23 10 45 19 22 10 94 40 160 68 66 28
125 53 130 56 6 4 15 7 20 8 6 1 51 20 100 42 50 22 131 56 180 77 50 21 104
43 120 50 17 8 53 23 80 35 28 12 59 25 70 30 11 5 49 21 85 35 36 15 82 36
103 47 20 10 37 16 37 12 0 -4 8 4 19 17 46 60 27 104 -64 147 -36 18 -76 34
-90 38 -14 3 -28 10 -31 15 -3 5 -14 9 -24 9 -10 0 -20 4 -22 10 -1 5 -12 11
-23 13 -11 2 -46 16 -79 30 -32 15 -61 27 -64 27 -3 0 -24 8 -46 19 -90 41
-136 61 -141 61 -3 0 -27 10 -53 21 -26 12 -60 27 -77 34 -16 7 -61 26 -100
43 -38 16 -221 94 -405 172 -184 78 -396 169 -471 201 -76 32 -141 59 -146 59
-4 0 -25 9 -44 19 -54 29 -137 48 -211 49 -37 0 -68 -1 -70 -3z m-1212 -819
c66 -10 105 -24 145 -51 128 -84 -26 -195 -261 -189 -88 3 -135 12 -196 40
-38 17 -76 55 -80 79 -13 85 199 150 392 121z m1389 -1 c100 -14 185 -67 185
-114 -1 -72 -137 -129 -300 -125 -86 3 -106 6 -175 29 -175 59 -119 184 95
212 25 3 46 6 47 7 4 4 99 -2 148 -9z m1376 1 c84 -10 164 -48 185 -88 42 -81
-85 -148 -286 -150 -99 -1 -177 16 -233 52 -159 101 55 220 334 186z"/>
<path d="M1005 5152 c-42 -7 -75 -25 -92 -51 -17 -25 -18 -92 -19 -1271 0
-720 4 -1262 9 -1285 26 -113 96 -197 210 -249 39 -19 160 -71 267 -116 107
-45 213 -90 235 -100 22 -10 67 -29 100 -43 83 -34 463 -196 500 -212 17 -7
118 -50 225 -95 107 -45 213 -90 235 -100 22 -10 116 -51 210 -90 187 -79 217
-83 247 -32 15 25 16 137 16 1263 0 976 -3 1245 -13 1284 -13 50 -51 138 -70
163 -65 84 -154 143 -304 202 -30 12 -75 30 -100 42 -25 11 -61 26 -78 34 -18
8 -48 20 -65 28 -18 8 -78 33 -133 56 -325 137 -835 354 -865 368 -19 9 -37
16 -40 17 -3 0 -32 12 -65 26 -33 15 -105 46 -160 69 -55 23 -113 48 -130 55
-67 30 -101 41 -120 37z m361 -408 c29 -14 94 -72 119 -106 80 -110 99 -286
40 -364 -14 -19 -36 -39 -48 -45 -31 -17 -91 -12 -135 10 -42 21 -122 98 -122
117 0 7 -5 14 -10 16 -15 5 -59 136 -61 183 -4 75 11 123 49 164 49 52 96 59
168 25z m1379 -583 c83 -39 154 -130 183 -237 69 -253 -107 -383 -281 -208
-96 97 -140 267 -95 374 35 84 107 111 193 71z m-679 -579 c160 -83 242 -355
143 -475 -17 -20 -33 -36 -37 -35 -4 1 -15 -2 -24 -6 -47 -21 -149 24 -205 88
-16 20 -41 57 -53 83 -13 27 -27 56 -32 66 -15 30 -18 164 -5 200 36 99 116
129 213 79z m-681 -579 c110 -72 182 -212 176 -343 -3 -53 -29 -117 -59 -144
-33 -29 -110 -33 -158 -8 -105 54 -189 196 -193 328 -6 165 110 247 234 167z
m1357 -570 c24 -9 62 -37 85 -61 41 -42 100 -146 106 -187 1 -11 5 -24 8 -30
10 -18 2 -125 -12 -158 -13 -33 -64 -86 -83 -88 -6 0 -20 -2 -30 -4 -25 -5
-101 21 -128 43 -101 84 -159 207 -153 330 7 140 89 202 207 155z"/>
<path d="M5370 5153 c-8 -3 -34 -13 -56 -23 -23 -11 -54 -22 -68 -26 -14 -3
-26 -9 -26 -13 0 -4 -6 -8 -12 -8 -7 0 -29 -7 -48 -16 -94 -43 -151 -67 -156
-67 -3 0 -35 -13 -71 -30 -35 -16 -71 -30 -79 -30 -8 0 -14 -4 -14 -10 0 -5
-6 -10 -13 -10 -11 0 -137 -51 -222 -90 -42 -19 -214 -92 -225 -95 -3 -1 -21
-8 -40 -17 -19 -8 -96 -41 -170 -72 -164 -70 -193 -82 -246 -107 -23 -10 -44
-19 -48 -19 -3 0 -28 -10 -54 -21 -26 -12 -60 -27 -77 -34 -222 -94 -245 -105
-290 -136 -104 -71 -155 -146 -192 -280 -12 -43 -14 -2501 -2 -2531 11 -27 27
-38 65 -45 18 -3 82 20 199 72 17 7 64 27 105 45 41 17 89 38 105 45 17 7 71
30 120 50 50 21 108 45 130 55 34 15 134 57 210 90 11 4 36 15 55 23 19 8 64
27 100 42 36 15 83 35 105 45 34 15 66 28 85 35 8 3 81 35 125 55 22 9 123 53
225 95 102 43 210 89 240 102 30 13 64 28 75 32 92 37 153 72 188 107 60 59
67 70 90 128 20 50 21 66 23 1296 1 732 -2 1260 -8 1283 -5 21 -19 44 -32 52
-30 20 -77 33 -96 28z m-888 -1563 c17 -8 38 -33 52 -63 22 -43 25 -60 21
-128 -6 -131 -79 -256 -183 -312 -120 -65 -226 9 -223 157 1 62 2 68 16 121 8
29 62 124 87 155 20 24 79 64 112 76 38 14 82 12 118 -6z"/>
</g>
</svg>
